<svg width="429" height="155" viewBox="0 0 429 155" fill="none" xmlns="http://www.w3.org/2000/svg">
<path d="M160.359 105H143.941L139.02 82.6055C138.785 81.668 138.41 79.8047 137.895 77.0156C137.402 74.2266 137.039 71.8945 136.805 70.0195C136.617 71.543 136.312 73.4414 135.891 75.7148C135.469 77.9648 135.047 80.0391 134.625 81.9375C134.227 83.8359 132.527 91.5234 129.527 105H113.109L100.383 53.6016H113.777L119.367 79.3711C120.633 85.0664 121.5 89.6016 121.969 92.9766C122.273 90.5859 122.812 87.3398 123.586 83.2383C124.383 79.1367 125.121 75.7383 125.801 73.043L130.336 53.6016H143.203L147.598 73.043C148.348 76.1602 149.109 79.7578 149.883 83.8359C150.656 87.9141 151.172 90.9609 151.43 92.9766C151.734 90.375 152.566 85.8633 153.926 79.4414L159.621 53.6016H173.016L160.359 105ZM227.754 79.2305C227.754 87.8789 225.633 94.4531 221.391 98.9531C217.148 103.453 210.938 105.703 202.758 105.703C194.695 105.703 188.508 103.441 184.195 98.918C179.906 94.3945 177.762 87.8086 177.762 79.1602C177.762 70.6055 179.895 64.0781 184.16 59.5781C188.449 55.0547 194.672 52.793 202.828 52.793C211.008 52.793 217.207 55.0312 221.426 59.5078C225.645 63.9844 227.754 70.5586 227.754 79.2305ZM192.387 79.2305C192.387 89.168 195.844 94.1367 202.758 94.1367C206.273 94.1367 208.875 92.9297 210.562 90.5156C212.273 88.1016 213.129 84.3398 213.129 79.2305C213.129 74.0977 212.262 70.3125 210.527 67.875C208.816 65.4141 206.25 64.1836 202.828 64.1836C195.867 64.1836 192.387 69.1992 192.387 79.2305ZM250.922 86.2969V105H237.035V53.6016H253.875C267.844 53.6016 274.828 58.6641 274.828 68.7891C274.828 74.7422 271.922 79.3477 266.109 82.6055L281.086 105H265.336L254.438 86.2969H250.922ZM250.922 75.8555H253.523C258.375 75.8555 260.801 73.7109 260.801 69.4219C260.801 65.8828 258.422 64.1133 253.664 64.1133H250.922V75.8555ZM329.672 105H313.992L303.832 85.3477L299.719 87.8086V105H285.762V53.6016H299.719V75.9258C300.422 74.543 301.84 72.3516 303.973 69.3516L314.766 53.6016H329.953L313.746 76.6289L329.672 105Z" fill="#FEFEFE" fill-opacity="0.85"/>
<rect x="88" y="83" width="253" height="45" fill="black" fill-opacity="0.46"/>
</svg>
