<svg width="546" height="102" viewBox="0 0 546 102" fill="none" xmlns="http://www.w3.org/2000/svg">
<path d="M127.277 38.2539C123.973 38.2539 121.395 39.6133 119.543 42.332C117.691 45.0273 116.766 48.7539 116.766 53.5117C116.766 63.4023 120.527 68.3477 128.051 68.3477C130.324 68.3477 132.527 68.0312 134.66 67.3984C136.793 66.7656 138.938 66.0039 141.094 65.1133V76.8555C136.805 78.7539 131.953 79.7031 126.539 79.7031C118.781 79.7031 112.828 77.4531 108.68 72.9531C104.555 68.4531 102.492 61.9492 102.492 53.4414C102.492 48.1211 103.488 43.4453 105.48 39.4141C107.496 35.3828 110.379 32.2891 114.129 30.1328C117.902 27.9531 122.332 26.8633 127.418 26.8633C132.973 26.8633 138.281 28.0703 143.344 30.4844L139.09 41.418C137.191 40.5273 135.293 39.7773 133.395 39.168C131.496 38.5586 129.457 38.2539 127.277 38.2539ZM199.242 53.2305C199.242 61.8789 197.121 68.4531 192.879 72.9531C188.637 77.4531 182.426 79.7031 174.246 79.7031C166.184 79.7031 159.996 77.4414 155.684 72.918C151.395 68.3945 149.25 61.8086 149.25 53.1602C149.25 44.6055 151.383 38.0781 155.648 33.5781C159.938 29.0547 166.16 26.793 174.316 26.793C182.496 26.793 188.695 29.0313 192.914 33.5078C197.133 37.9844 199.242 44.5586 199.242 53.2305ZM163.875 53.2305C163.875 63.168 167.332 68.1367 174.246 68.1367C177.762 68.1367 180.363 66.9297 182.051 64.5156C183.762 62.1016 184.617 58.3398 184.617 53.2305C184.617 48.0977 183.75 44.3125 182.016 41.875C180.305 39.4141 177.738 38.1836 174.316 38.1836C167.355 38.1836 163.875 43.1992 163.875 53.2305ZM257.461 79H239.25L220.477 42.7891H220.16C220.605 48.4844 220.828 52.832 220.828 55.832V79H208.523V27.6016H226.664L245.367 63.3203H245.578C245.25 58.1406 245.086 53.9805 245.086 50.8398V27.6016H257.461V79ZM291.246 79H277.359V38.957H264.809V27.6016H303.762V38.957H291.246V79ZM342.645 79L340.113 69.3672H323.414L320.812 79H305.555L322.324 27.3906H340.852L357.832 79H342.645ZM337.23 57.9766L335.016 49.5391C334.5 47.6641 333.867 45.2383 333.117 42.2617C332.391 39.2852 331.91 37.1523 331.676 35.8633C331.465 37.0586 331.043 39.0273 330.41 41.7695C329.801 44.5117 328.43 49.9141 326.297 57.9766H337.23ZM386.309 38.2539C383.004 38.2539 380.426 39.6133 378.574 42.332C376.723 45.0273 375.797 48.7539 375.797 53.5117C375.797 63.4023 379.559 68.3477 387.082 68.3477C389.355 68.3477 391.559 68.0312 393.691 67.3984C395.824 66.7656 397.969 66.0039 400.125 65.1133V76.8555C395.836 78.7539 390.984 79.7031 385.57 79.7031C377.812 79.7031 371.859 77.4531 367.711 72.9531C363.586 68.4531 361.523 61.9492 361.523 53.4414C361.523 48.1211 362.52 43.4453 364.512 39.4141C366.527 35.3828 369.41 32.2891 373.16 30.1328C376.934 27.9531 381.363 26.8633 386.449 26.8633C392.004 26.8633 397.312 28.0703 402.375 30.4844L398.121 41.418C396.223 40.5273 394.324 39.7773 392.426 39.168C390.527 38.5586 388.488 38.2539 386.309 38.2539ZM432.855 79H418.969V38.957H406.418V27.6016H445.371V38.957H432.855V79Z" fill="white" fill-opacity="0.85"/>
<rect x="88" y="58" width="370" height="44" fill="black" fill-opacity="0.46"/>
</svg>
